<svg width="161" height="40" viewBox="0 0 161 40" fill="none" xmlns="http://www.w3.org/2000/svg">
<path d="M26.25 35H30.625C31.7853 35 32.8981 34.5391 33.7186 33.7186C34.5391 32.8981 35 31.7853 35 30.625V26.25M35 13.75V9.375C35 8.21468 34.5391 7.10188 33.7186 6.28141C32.8981 5.46094 31.7853 5 30.625 5H26.25M13.75 35H9.375C8.21468 35 7.10188 34.5391 6.28141 33.7186C5.46094 32.8981 5 31.7853 5 30.625V26.25M5 13.75V9.375C5 8.21468 5.46094 7.10188 6.28141 6.28141C7.10188 5.46094 8.21468 5 9.375 5H13.75" stroke="#27AE60" stroke-width="2.5" stroke-linecap="round" stroke-linejoin="round"/>
<path d="M20.7365 9.88854C20.5411 9.69326 20.2762 9.58356 20 9.58356C19.7238 9.58356 19.4589 9.69326 19.2636 9.88854L15.0969 14.0552C14.939 14.2132 14.836 14.4177 14.8032 14.6387C14.7703 14.8596 14.8094 15.0852 14.9146 15.2823C15.1719 15.7646 15.574 16.0896 15.9667 16.3104L13.0136 19.2635C12.8183 19.4589 12.7086 19.7238 12.7086 20C12.7086 20.2762 12.8183 20.5411 13.0136 20.7365C13.5115 21.2344 14.1406 21.5385 14.7156 21.7281L11.9719 24.4719C11.8461 24.5978 11.7547 24.7538 11.7064 24.9251C11.658 25.0963 11.6543 25.2771 11.6957 25.4502C11.7371 25.6233 11.8221 25.7829 11.9426 25.9138C12.0632 26.0447 12.2153 26.1425 12.3844 26.1979C13.1031 26.4344 13.8459 26.6021 14.5875 26.75C15.4 26.9135 16.4063 27.075 17.5511 27.1792L16.9281 29.0458C16.876 29.2024 16.8618 29.3692 16.8867 29.5323C16.9117 29.6955 16.975 29.8504 17.0715 29.9843C17.1681 30.1182 17.2951 30.2272 17.442 30.3023C17.5889 30.3775 17.7516 30.4167 17.9167 30.4167H22.0834C22.2484 30.4167 22.4111 30.3775 22.558 30.3023C22.705 30.2272 22.832 30.1182 22.9285 29.9843C23.025 29.8504 23.0884 29.6955 23.1133 29.5323C23.1382 29.3692 23.1241 29.2024 23.0719 29.0458L22.449 27.1792C23.5948 27.075 24.6011 26.9135 25.4125 26.751C26.1542 26.6021 26.9021 26.4344 27.6209 26.1969C27.7894 26.1408 27.9407 26.0425 28.0605 25.9114C28.1804 25.7803 28.2647 25.6208 28.3055 25.4479C28.3463 25.2751 28.3422 25.0947 28.2937 24.9239C28.2452 24.753 28.1537 24.5974 28.0281 24.4719L25.2844 21.7281C25.8594 21.5396 26.4886 21.2344 26.9865 20.7365C27.1818 20.5411 27.2915 20.2762 27.2915 20C27.2915 19.7238 27.1818 19.4589 26.9865 19.2635L24.0334 16.3104C24.4261 16.0896 24.8281 15.7646 25.0854 15.2823C25.1906 15.0852 25.2297 14.8596 25.1969 14.6387C25.1641 14.4177 25.0611 14.2132 24.9031 14.0552L20.7365 9.88854Z" fill="#27AE60"/>
<path d="M55.5469 25.9057C55.5469 26.1306 55.4271 26.3406 55.2229 26.4348C54.7151 26.6693 54.0353 26.8843 53.1836 27.0801C52.1354 27.3145 51.1361 27.4316 50.1855 27.4316C47.7311 27.4316 45.8366 26.8197 44.502 25.5957C43.1673 24.3652 42.5 22.6432 42.5 20.4297C42.5 18.9453 42.8353 17.627 43.5059 16.4746C44.1829 15.3223 45.1335 14.4466 46.3574 13.8477C47.5814 13.2487 49.0234 12.9492 50.6836 12.9492C51.7605 12.9492 52.901 13.0842 54.1052 13.3542C54.3851 13.4169 54.5801 13.668 54.5801 13.9548V16.1778C54.5801 16.6324 54.109 16.9356 53.6777 16.7921C53.3528 16.684 53.0351 16.601 52.7246 16.543C52.1322 16.4258 51.4844 16.3672 50.7812 16.3672C49.6224 16.3672 48.6979 16.7155 48.0078 17.4121C47.3242 18.1087 46.9824 19.0658 46.9824 20.2832C46.9824 21.4486 47.2689 22.36 47.8418 23.0176C48.4212 23.6751 49.2285 24.0039 50.2637 24.0039C50.4794 24.0039 50.6696 23.9987 50.8344 23.9882C51.1253 23.9698 51.3281 23.719 51.3281 23.4275V22.5488C51.3281 22.2037 51.0483 21.9238 50.7031 21.9238H49.2676C48.9224 21.9238 48.6426 21.644 48.6426 21.2988V19.3555C48.6426 19.0103 48.9224 18.7305 49.2676 18.7305H54.9219C55.2671 18.7305 55.5469 19.0103 55.5469 19.3555V25.9057Z" fill="#27AE60"/>
<path d="M64.9707 20.0866C64.9707 20.3977 64.6398 20.6233 64.3359 20.5566C64.069 20.498 63.8477 20.4688 63.6719 20.4688C62.2982 20.4688 61.6113 21.263 61.6113 22.8516V26.5625C61.6113 26.9077 61.3315 27.1875 60.9863 27.1875H58.0762C57.731 27.1875 57.4512 26.9077 57.4512 26.5625V17.8125C57.4512 17.4673 57.731 17.1875 58.0762 17.1875H60.9863C61.3315 17.1875 61.6113 17.4673 61.6113 17.8125V18.922C61.6113 18.9349 61.6218 18.9453 61.6346 18.9453C61.6442 18.9453 61.6527 18.9395 61.6563 18.9307C61.9099 18.3064 62.2693 17.8328 62.7344 17.5098C63.2031 17.1777 63.75 17.0117 64.375 17.0117C64.4486 17.0117 64.5191 17.0158 64.5865 17.0239C64.8286 17.0531 64.9707 17.285 64.9707 17.5288V20.0866Z" fill="#27AE60"/>
<path d="M70.5034 23.3691C70.1172 23.3691 69.8204 23.737 70.0721 24.03C70.1871 24.1639 70.3323 24.2822 70.5078 24.3848C70.931 24.6257 71.4909 24.7461 72.1875 24.7461C72.8303 24.7461 73.4502 24.6646 74.0473 24.5017C74.4801 24.3835 74.9414 24.6886 74.9414 25.1373V26.403C74.9414 26.6586 74.7866 26.8908 74.5439 26.9711C73.6159 27.2781 72.5244 27.4316 71.2695 27.4316C69.5247 27.4316 68.1673 26.9857 67.1973 26.0938C66.2272 25.2018 65.7422 23.9746 65.7422 22.4121C65.7422 21.3379 65.9538 20.3906 66.377 19.5703C66.8066 18.75 67.4382 18.1087 68.2715 17.6465C69.1113 17.1777 70.0358 16.9434 71.0449 16.9434C72.0801 16.9434 72.9655 17.1452 73.7012 17.5488C74.4368 17.9525 74.9935 18.5189 75.3711 19.248C75.7552 19.9772 75.9473 20.8301 75.9473 21.8066V22.7441C75.9473 23.0893 75.6674 23.3691 75.3223 23.3691H70.5034ZM71.6406 21.1914C71.9858 21.1914 72.2769 20.9086 72.216 20.5688C72.0836 19.8315 71.6868 19.4629 71.0254 19.4629C70.6803 19.4629 70.3906 19.6224 70.1562 19.9414C70.0314 20.1079 69.9342 20.304 69.8648 20.5297C69.7578 20.8772 70.0561 21.1914 70.4197 21.1914H71.6406Z" fill="#27AE60"/>
<path d="M81.7144 23.3691C81.3281 23.3691 81.0314 23.737 81.283 24.03C81.398 24.1639 81.5433 24.2822 81.7188 24.3848C82.1419 24.6257 82.7018 24.7461 83.3984 24.7461C84.0412 24.7461 84.6612 24.6646 85.2582 24.5017C85.6911 24.3835 86.1523 24.6886 86.1523 25.1373V26.403C86.1523 26.6586 85.9975 26.8908 85.7549 26.9711C84.8268 27.2781 83.7354 27.4316 82.4805 27.4316C80.7357 27.4316 79.3783 26.9857 78.4082 26.0938C77.4382 25.2018 76.9531 23.9746 76.9531 22.4121C76.9531 21.3379 77.1647 20.3906 77.5879 19.5703C78.0176 18.75 78.6491 18.1087 79.4824 17.6465C80.3223 17.1777 81.2467 16.9434 82.2559 16.9434C83.291 16.9434 84.1764 17.1452 84.9121 17.5488C85.6478 17.9525 86.2044 18.5189 86.582 19.248C86.9661 19.9772 87.1582 20.8301 87.1582 21.8066V22.7441C87.1582 23.0893 86.8784 23.3691 86.5332 23.3691H81.7144ZM82.8516 21.1914C83.1967 21.1914 83.4879 20.9086 83.4269 20.5688C83.2945 19.8315 82.8977 19.4629 82.2363 19.4629C81.8913 19.4629 81.6016 19.6224 81.3672 19.9414C81.2423 20.1079 81.1451 20.304 81.0757 20.5297C80.9688 20.8772 81.2671 21.1914 81.6307 21.1914H82.8516Z" fill="#27AE60"/>
<path d="M95.7129 27.1875C95.3677 27.1875 95.0879 26.9077 95.0879 26.5625V21.7285C95.0879 21.11 94.9935 20.6673 94.8047 20.4004C94.6224 20.127 94.3229 19.9902 93.9062 19.9902C93.5482 19.9902 93.2682 20.1302 93.0664 20.4102C92.8646 20.6901 92.7637 21.0482 92.7637 21.4844V26.5625C92.7637 26.9077 92.4838 27.1875 92.1387 27.1875H89.2285C88.8833 27.1875 88.6035 26.9077 88.6035 26.5625V17.8125C88.6035 17.4673 88.8833 17.1875 89.2285 17.1875H92.1387C92.4838 17.1875 92.7637 17.4673 92.7637 17.8125V18.7252C92.7637 18.7389 92.7748 18.75 92.7885 18.75C92.7973 18.75 92.8055 18.7453 92.8099 18.7376C93.1412 18.1707 93.5848 17.7321 94.1406 17.4219C94.7005 17.1029 95.3092 16.9434 95.9668 16.9434C98.1543 16.9434 99.248 18.3236 99.248 21.084V26.5625C99.248 26.9077 98.9682 27.1875 98.623 27.1875H95.7129Z" fill="#27AE60"/>
<path d="M109.623 26.7568C109.539 27.0137 109.3 27.1875 109.029 27.1875H105.201C104.93 27.1875 104.69 27.0126 104.606 26.7545L100.488 14.0006C100.358 13.597 100.659 13.1836 101.083 13.1836H104.277C104.564 13.1836 104.814 13.3794 104.883 13.6581L106.904 21.8066C107.066 22.4708 107.159 22.9752 107.184 23.3197C107.186 23.3475 107.209 23.3691 107.237 23.3691C107.264 23.3691 107.287 23.3484 107.29 23.3214C107.332 22.8937 107.431 22.3692 107.588 21.748L109.552 13.6611C109.62 13.3809 109.871 13.1836 110.159 13.1836H113.201C113.626 13.1836 113.927 13.5988 113.795 14.0029L109.623 26.7568Z" fill="#27AE60"/>
<path d="M119.57 14.4922C119.57 15.0781 119.355 15.5534 118.926 15.918C118.503 16.2826 117.943 16.4648 117.246 16.4648C116.569 16.4648 116.012 16.276 115.576 15.8984C115.146 15.5208 114.932 15.0521 114.932 14.4922C114.932 13.9193 115.14 13.457 115.557 13.1055C115.98 12.7474 116.543 12.5684 117.246 12.5684C117.943 12.5684 118.503 12.7474 118.926 13.1055C119.355 13.457 119.57 13.9193 119.57 14.4922ZM115.791 27.1875C115.446 27.1875 115.166 26.9077 115.166 26.5625V17.8125C115.166 17.4673 115.446 17.1875 115.791 17.1875H118.701C119.046 17.1875 119.326 17.4673 119.326 17.8125V26.5625C119.326 26.9077 119.046 27.1875 118.701 27.1875H115.791Z" fill="#27AE60"/>
<path d="M129.463 23.8672C129.463 25 129.03 25.8789 128.164 26.5039C127.305 27.1224 126.104 27.4316 124.561 27.4316C124.111 27.4316 123.555 27.3861 122.891 27.2949C122.446 27.2333 122.057 27.1628 121.723 27.0834C121.457 27.0202 121.279 26.7768 121.279 26.5034V25.0047C121.279 24.5524 121.745 24.25 122.17 24.4041C123.015 24.7102 123.747 24.8633 124.365 24.8633C125.179 24.8633 125.586 24.6517 125.586 24.2285C125.586 24.0527 125.492 23.9095 125.303 23.7988C125.114 23.6816 124.619 23.4896 123.818 23.2227C122.933 22.9427 122.288 22.5716 121.885 22.1094C121.481 21.6471 121.279 21.0449 121.279 20.3027C121.279 19.2676 121.689 18.4505 122.51 17.8516C123.337 17.2461 124.495 16.9434 125.986 16.9434C126.718 16.9434 127.485 17.0326 128.29 17.211C128.568 17.2726 128.76 17.5229 128.76 17.8075V19.1791C128.76 19.6278 128.298 19.9349 127.868 19.8086C127.72 19.7653 127.568 19.7249 127.412 19.6875C126.924 19.5703 126.514 19.5117 126.182 19.5117C125.908 19.5117 125.69 19.5573 125.527 19.6484C125.365 19.7396 125.283 19.8665 125.283 20.0293C125.283 20.2181 125.371 20.3711 125.547 20.4883C125.723 20.6055 126.074 20.7454 126.602 20.9082C127.624 21.2077 128.356 21.5918 128.799 22.0605C129.242 22.5293 129.463 23.1315 129.463 23.8672Z" fill="#27AE60"/>
<path d="M135.41 14.4922C135.41 15.0781 135.195 15.5534 134.766 15.918C134.342 16.2826 133.783 16.4648 133.086 16.4648C132.409 16.4648 131.852 16.276 131.416 15.8984C130.986 15.5208 130.771 15.0521 130.771 14.4922C130.771 13.9193 130.98 13.457 131.396 13.1055C131.82 12.7474 132.383 12.5684 133.086 12.5684C133.783 12.5684 134.342 12.7474 134.766 13.1055C135.195 13.457 135.41 13.9193 135.41 14.4922ZM131.631 27.1875C131.286 27.1875 131.006 26.9077 131.006 26.5625V17.8125C131.006 17.4673 131.286 17.1875 131.631 17.1875H134.541C134.886 17.1875 135.166 17.4673 135.166 17.8125V26.5625C135.166 26.9077 134.886 27.1875 134.541 27.1875H131.631Z" fill="#27AE60"/>
<path d="M148.301 22.0117C148.301 23.6979 147.79 25.0228 146.768 25.9863C145.752 26.9499 144.329 27.4316 142.5 27.4316C140.684 27.4316 139.268 26.9629 138.252 26.0254C137.243 25.0814 136.738 23.7826 136.738 22.1289C136.738 21.0677 136.976 20.1465 137.451 19.3652C137.926 18.584 138.604 17.985 139.482 17.5684C140.361 17.1517 141.374 16.9434 142.52 16.9434C143.704 16.9434 144.73 17.1615 145.596 17.5977C146.468 18.0339 147.135 18.6393 147.598 19.4141C148.066 20.1888 148.301 21.0547 148.301 22.0117ZM144.082 22.0312C144.082 20.6706 143.561 19.9902 142.52 19.9902C141.478 19.9902 140.957 20.7031 140.957 22.1289C140.957 23.6328 141.484 24.3848 142.539 24.3848C143.568 24.3848 144.082 23.6003 144.082 22.0312Z" fill="#27AE60"/>
<path d="M156.963 27.1875C156.618 27.1875 156.338 26.9077 156.338 26.5625V21.7285C156.338 21.11 156.243 20.6673 156.055 20.4004C155.872 20.127 155.573 19.9902 155.156 19.9902C154.798 19.9902 154.518 20.1302 154.316 20.4102C154.115 20.6901 154.014 21.0482 154.014 21.4844V26.5625C154.014 26.9077 153.734 27.1875 153.389 27.1875H150.479C150.133 27.1875 149.854 26.9077 149.854 26.5625V17.8125C149.854 17.4673 150.133 17.1875 150.479 17.1875H153.389C153.734 17.1875 154.014 17.4673 154.014 17.8125V18.7252C154.014 18.7389 154.025 18.75 154.038 18.75C154.047 18.75 154.055 18.7453 154.06 18.7376C154.391 18.1707 154.835 17.7321 155.391 17.4219C155.951 17.1029 156.559 16.9434 157.217 16.9434C159.404 16.9434 160.498 18.3236 160.498 21.084V26.5625C160.498 26.9077 160.218 27.1875 159.873 27.1875H156.963Z" fill="#27AE60"/>
</svg>
