<svg width="112" height="40" viewBox="0 0 112 40" fill="none" xmlns="http://www.w3.org/2000/svg">
<path d="M26.25 35H30.625C31.7853 35 32.8981 34.5391 33.7186 33.7186C34.5391 32.8981 35 31.7853 35 30.625V26.25M35 13.75V9.375C35 8.21468 34.5391 7.10188 33.7186 6.28141C32.8981 5.46094 31.7853 5 30.625 5H26.25M13.75 35H9.375C8.21468 35 7.10188 34.5391 6.28141 33.7186C5.46094 32.8981 5 31.7853 5 30.625V26.25M5 13.75V9.375C5 8.21468 5.46094 7.10188 6.28141 6.28141C7.10188 5.46094 8.21468 5 9.375 5H13.75" stroke="#29BE5E" stroke-width="2.5" stroke-linecap="round" stroke-linejoin="round"/>
<path d="M20.7365 9.88854C20.5411 9.69326 20.2762 9.58356 20 9.58356C19.7238 9.58356 19.4589 9.69326 19.2636 9.88854L15.0969 14.0552C14.939 14.2132 14.836 14.4177 14.8032 14.6387C14.7703 14.8596 14.8094 15.0852 14.9146 15.2823C15.1719 15.7646 15.574 16.0896 15.9667 16.3104L13.0136 19.2635C12.8183 19.4589 12.7086 19.7238 12.7086 20C12.7086 20.2762 12.8183 20.5411 13.0136 20.7365C13.5115 21.2344 14.1406 21.5385 14.7156 21.7281L11.9719 24.4719C11.8461 24.5978 11.7547 24.7538 11.7064 24.9251C11.658 25.0963 11.6543 25.2771 11.6957 25.4502C11.7371 25.6233 11.8221 25.7829 11.9426 25.9138C12.0632 26.0447 12.2153 26.1425 12.3844 26.1979C13.1031 26.4344 13.8459 26.6021 14.5875 26.75C15.4 26.9135 16.4063 27.075 17.5511 27.1792L16.9281 29.0458C16.876 29.2024 16.8618 29.3692 16.8867 29.5323C16.9117 29.6955 16.975 29.8504 17.0715 29.9843C17.1681 30.1182 17.2951 30.2272 17.442 30.3023C17.5889 30.3775 17.7516 30.4167 17.9167 30.4167H22.0834C22.2484 30.4167 22.4111 30.3775 22.558 30.3023C22.705 30.2272 22.832 30.1182 22.9285 29.9843C23.025 29.8504 23.0884 29.6955 23.1133 29.5323C23.1382 29.3692 23.1241 29.2024 23.0719 29.0458L22.449 27.1792C23.5948 27.075 24.6011 26.9135 25.4125 26.751C26.1542 26.6021 26.9021 26.4344 27.6209 26.1969C27.7894 26.1408 27.9407 26.0425 28.0605 25.9114C28.1804 25.7803 28.2647 25.6208 28.3055 25.4479C28.3463 25.2751 28.3422 25.0947 28.2937 24.9239C28.2452 24.753 28.1537 24.5974 28.0281 24.4719L25.2844 21.7281C25.8594 21.5396 26.4886 21.2344 26.9865 20.7365C27.1818 20.5411 27.2915 20.2762 27.2915 20C27.2915 19.7238 27.1818 19.4589 26.9865 19.2635L24.0334 16.3104C24.4261 16.0896 24.8281 15.7646 25.0854 15.2823C25.1906 15.0852 25.2297 14.8596 25.1969 14.6387C25.1641 14.4177 25.0611 14.2132 24.9031 14.0552L20.7365 9.88854Z" fill="#29BE5E"/>
<path d="M49.7712 12.5C49.9951 12.5 50.2018 12.6197 50.3133 12.8138L52.7794 17.1098C52.7991 17.1441 52.8356 17.1652 52.8752 17.1652C52.9145 17.1652 52.9509 17.1443 52.9707 17.1102L55.4681 12.8111C55.5799 12.6185 55.7858 12.5 56.0085 12.5H59.4786C59.9661 12.5 60.2659 13.0334 60.0125 13.4499L55.9141 20.1842C55.7907 20.3871 55.7929 20.6424 55.9198 20.8432L60.1753 27.5718C60.4385 27.9879 60.1395 28.5308 59.6471 28.5308H56.0717C55.8493 28.5308 55.6437 28.4127 55.5317 28.2205L52.9709 23.8268C52.951 23.7927 52.9145 23.7717 52.875 23.7717C52.8355 23.7717 52.799 23.7927 52.7791 23.8268L50.2183 28.2205C50.1063 28.4127 49.9007 28.5308 49.6783 28.5308H46.1272C45.6364 28.5308 45.3371 27.9911 45.597 27.5748L49.8021 20.8412C49.9269 20.6414 49.9287 20.3883 49.8069 20.1868L45.7328 13.4484C45.481 13.0318 45.7809 12.5 46.2676 12.5H49.7712Z" fill="#29BE5E"/>
<path d="M62.6802 16.0067C62.335 16.0067 62.0552 15.7269 62.0552 15.3817V13.125C62.0552 12.7798 62.335 12.5 62.6802 12.5H75.6179C75.9631 12.5 76.2429 12.7798 76.2429 13.125V15.3817C76.2429 15.7269 75.9631 16.0067 75.6179 16.0067H71.958C71.6128 16.0067 71.333 16.2866 71.333 16.6317V27.9058C71.333 28.251 71.0532 28.5308 70.708 28.5308H67.5901C67.2449 28.5308 66.9651 28.251 66.9651 27.9058V16.6317C66.9651 16.2866 66.6853 16.0067 66.3401 16.0067H62.6802Z" fill="#29BE5E"/>
<path d="M77.3282 28.5308C76.9831 28.5308 76.7032 28.251 76.7032 27.9058V17.1327C76.7032 16.7875 76.9831 16.5077 77.3282 16.5077H80.3505C80.6957 16.5077 80.9755 16.7875 80.9755 17.1327V18.7213C80.9755 18.7611 81.0078 18.7934 81.0475 18.7934C81.0802 18.7934 81.1088 18.7712 81.1175 18.7397C81.3413 17.9217 81.6899 17.3213 82.1631 16.9382C82.652 16.5468 83.2232 16.3512 83.8768 16.3512C84.0681 16.3512 84.2567 16.3668 84.4427 16.3981C84.4749 16.4025 84.5068 16.4073 84.5385 16.4124C84.8115 16.4565 84.9927 16.7051 84.9927 16.9816V19.3792C84.9927 19.7838 84.5896 20.084 84.1877 20.0379C83.8688 20.0014 83.5952 19.9831 83.3667 19.9831C82.9363 19.9831 82.5484 20.0797 82.203 20.2728C81.8629 20.4606 81.5946 20.7268 81.3979 21.0712C81.2013 21.4104 81.103 21.8096 81.103 22.2688V27.9058C81.103 28.251 80.8232 28.5308 80.478 28.5308H77.3282Z" fill="#29BE5E"/>
<path d="M91.6004 28.75C90.2932 28.75 89.1667 28.5047 88.2208 28.0142C87.2803 27.5185 86.5549 26.8088 86.0448 25.8851C85.54 24.9562 85.2876 23.8447 85.2876 22.5506C85.2876 21.3086 85.5427 20.2232 86.0528 19.2943C86.5629 18.3654 87.2829 17.6427 88.2128 17.1261C89.1428 16.6095 90.24 16.3512 91.5047 16.3512C92.4293 16.3512 93.2662 16.4921 94.0155 16.7738C94.7647 17.0556 95.405 17.4653 95.9364 18.0028C96.4678 18.535 96.8769 19.1821 97.1639 19.944C97.4508 20.7059 97.5943 21.5643 97.5943 22.5193V22.8962C97.5943 23.2414 97.3145 23.5212 96.9693 23.5212H87.2836C86.9384 23.5212 86.6586 23.2414 86.6586 22.8962V21.7666C86.6586 21.4214 86.9384 21.1416 87.2836 21.1416H92.9105C93.2594 21.1416 93.5563 20.8457 93.4266 20.5217C93.3861 20.4206 93.3353 20.3246 93.2742 20.2336C93.1042 19.9675 92.873 19.7614 92.5808 19.6152C92.2938 19.4639 91.967 19.3882 91.6004 19.3882C91.2443 19.3882 90.9176 19.4639 90.62 19.6152C90.3224 19.7614 90.0833 19.9649 89.9026 20.2258C89.7273 20.4867 89.6343 20.792 89.6236 21.1416V23.7091C89.6236 24.0952 89.706 24.4396 89.8707 24.7423C90.0355 25.045 90.2719 25.2824 90.5801 25.4546C90.8883 25.6268 91.2603 25.7129 91.696 25.7129C91.9989 25.7129 92.2752 25.6712 92.525 25.5877C92.78 25.5042 92.9979 25.3842 93.1786 25.2276C93.249 25.1645 93.3122 25.0967 93.3681 25.0241C93.5265 24.8183 93.7489 24.6484 94.0086 24.6484H96.8574C97.2433 24.6484 97.5404 24.997 97.4211 25.364C97.2452 25.9049 96.9761 26.3917 96.6139 26.8244C96.0985 27.435 95.4156 27.9098 94.5654 28.249C93.7206 28.583 92.7322 28.75 91.6004 28.75Z" fill="#29BE5E"/>
<path d="M105.256 28.75C103.949 28.75 102.822 28.5047 101.877 28.0142C100.936 27.5185 100.211 26.8088 99.7005 25.8851C99.1957 24.9562 98.9433 23.8447 98.9433 22.5506C98.9433 21.3086 99.1984 20.2232 99.7085 19.2943C100.219 18.3654 100.939 17.6427 101.869 17.1261C102.798 16.6095 103.896 16.3512 105.16 16.3512C106.085 16.3512 106.922 16.4921 107.671 16.7738C108.42 17.0556 109.061 17.4653 109.592 18.0028C110.123 18.535 110.533 19.1821 110.82 19.944C111.107 20.7059 111.25 21.5643 111.25 22.5193V22.8962C111.25 23.2414 110.97 23.5212 110.625 23.5212H100.939C100.594 23.5212 100.314 23.2414 100.314 22.8962V21.7666C100.314 21.4214 100.594 21.1416 100.939 21.1416H106.566C106.915 21.1416 107.212 20.8457 107.082 20.5217C107.042 20.4206 106.991 20.3246 106.93 20.2336C106.76 19.9675 106.529 19.7614 106.236 19.6152C105.95 19.4639 105.623 19.3882 105.256 19.3882C104.9 19.3882 104.573 19.4639 104.276 19.6152C103.978 19.7614 103.739 19.9649 103.558 20.2258C103.383 20.4867 103.29 20.792 103.279 21.1416V23.7091C103.279 24.0952 103.362 24.4396 103.526 24.7423C103.691 25.045 103.928 25.2824 104.236 25.4546C104.544 25.6268 104.916 25.7129 105.352 25.7129C105.655 25.7129 105.931 25.6712 106.181 25.5877C106.436 25.5042 106.654 25.3842 106.834 25.2276C106.905 25.1645 106.968 25.0967 107.024 25.0241C107.182 24.8183 107.405 24.6484 107.664 24.6484H110.513C110.899 24.6484 111.196 24.997 111.077 25.364C110.901 25.9049 110.632 26.3917 110.27 26.8244C109.754 27.435 109.071 27.9098 108.221 28.249C107.376 28.583 106.388 28.75 105.256 28.75Z" fill="#29BE5E"/>
</svg>
